<?xml version="1.0" encoding="UTF-8"?>
<!DOCTYPE svg PUBLIC "-//W3C//DTD SVG 1.1//EN" "http://www.w3.org/Graphics/SVG/1.1/DTD/svg11.dtd">
<!-- Creator: CorelDRAW 2019 (64 Bit) -->
<svg xmlns="http://www.w3.org/2000/svg" xml:space="preserve" width="86.2668mm" height="23.1978mm" version="1.1" style="shape-rendering:geometricPrecision; text-rendering:geometricPrecision; image-rendering:optimizeQuality; fill-rule:evenodd; clip-rule:evenodd"
viewBox="0 0 8626.68 2319.78"
 xmlns:xlink="http://www.w3.org/1999/xlink">
 <defs>
  <style type="text/css">
   <![CDATA[
    .str0 {stroke:white;stroke-width:7.62;stroke-miterlimit:22.9256}
    .fil1 {fill:white}
    .fil0 {fill:white;fill-rule:nonzero}
   ]]>
  </style>
 </defs>
 <g id="Camada_x0020_1">
  <metadata id="CorelCorpID_0Corel-Layer"/>
  <g id="_1766454964016">
   <path class="fil0" d="M2576.44 1131.39l241.01 0c64.43,0 156.31,39.37 156.31,114.54 0,78.75 -91.88,100.22 -156.31,100.22l-241.01 0 0 -214.76zm0 -331.69l241.01 0c100.23,0 131.25,64.82 131.25,103.2 0,48.13 -32.22,90.08 -131.25,90.08l-241.01 0 0 -193.28zm241.01 -143.18c-132.43,0 -264.87,0 -396.12,0l0 836.39c132.44,0 263.69,0 396.12,0 173.01,0 312.61,-59.66 312.61,-245.79 0,-52.49 -35.8,-156.3 -133.64,-186.13 77.56,-34.6 108.58,-96.84 108.58,-161.67 0,-168.83 -122.89,-242.8 -287.55,-242.8zm996.27 594.18c22.67,-242.2 -100.22,-363.91 -297.09,-363.91 -190.9,0 -312.6,128.86 -312.6,307.84 0,188.51 120.5,313.79 323.34,313.79 89.48,0 190.9,-31.02 252.94,-95.45l-93.06 -91.87c-33.41,34.6 -103.8,54.88 -157.5,54.88 -102.61,0 -165.84,-52.5 -175.39,-125.28l459.36 0zm-456.97 -120.5c21.47,-76.37 85.9,-114.55 164.65,-114.55 83.52,0 143.18,38.18 152.72,114.55l-317.37 0zm1034.45 -164.66c-68.01,-59.65 -137.21,-77.55 -229.08,-77.55 -107.39,0 -248.18,47.72 -248.18,183.74 0,133.63 132.44,174.2 243.4,182.55 83.52,4.77 116.93,21.48 116.93,62.05 0,42.95 -51.3,71.58 -106.19,70.39 -65.62,-1.19 -161.07,-35.79 -202.83,-82.33l-71.59 103.81c85.91,89.48 178.97,104.99 272.04,104.99 168.23,0 252.94,-89.48 252.94,-193.29 0,-156.3 -140.79,-181.35 -251.75,-188.51 -75.17,-4.77 -109.77,-26.25 -109.77,-64.43 0,-36.99 38.18,-58.46 107.38,-58.46 56.08,0 103.81,13.12 145.57,52.49l81.13 -95.45zm180.16 -211.18l0 151.53 -109.77 0 0 125.27 109.77 0 0 254.14c0,146.76 83.52,219.54 211.19,214.77 44.14,-1.19 78.75,-8.35 120.51,-25.06l-40.57 -124.08c-21.48,10.73 -47.73,17.89 -70.4,17.89 -45.34,0 -76.36,-27.44 -76.36,-83.52l0 -254.14 163.46 0 0 -125.27 -162.26 0 0 -167.04 -145.57 15.51zm584.64 52.49l236.24 0c200.45,0 201.64,295.9 0,295.9l-236.24 0 0 -295.9zm236.24 -150.33c-131.25,-1.19 -262.49,0 -393.74,0l0 836.39 157.5 0 0 -245.79 236.24 0c409.25,0 408.05,-590.6 0,-590.6zm402.09 2.39l0 834 144.37 0 0 -834 -144.37 0zm733.78 326.92c-33.41,-58.47 -108.57,-95.46 -187.32,-95.46 -171.81,-1.19 -306.64,105 -306.64,307.83 0,206.42 128.86,313.8 303.06,312.61 65.62,-1.2 157.49,-34.6 190.9,-103.81l7.16 85.91 137.21 0 0 -588.22 -139.6 0 -4.77 81.14zm-174.2 34.6c229.09,0 229.09,356.75 0,356.75 -96.64,0 -174.2,-66.82 -174.2,-178.98 0,-112.15 77.56,-177.77 174.2,-177.77zm861.45 301.86c-35.8,35.8 -82.33,48.92 -128.86,48.92 -90.68,0 -167.04,-59.66 -167.04,-171.81 0,-102.61 71.59,-174.2 169.42,-174.2 40.57,0 83.52,15.51 118.12,46.53l91.88 -96.64c-64.43,-63.24 -128.86,-87.1 -212.38,-87.1 -170.62,0 -312.61,102.61 -312.61,311.41 0,208.8 141.99,311.41 312.61,311.41 87.1,0 158.68,-26.25 226.69,-93.07l-97.83 -95.45zm769.57 -71.59c22.67,-242.2 -100.22,-363.91 -297.09,-363.91 -190.9,0 -312.6,128.86 -312.6,307.84 0,188.51 120.5,313.79 323.34,313.79 89.48,0 190.9,-31.02 252.94,-95.45l-93.06 -91.87c-33.41,34.6 -103.8,54.88 -157.5,54.88 -102.61,0 -165.84,-52.5 -175.39,-125.28l459.36 0zm-456.97 -120.5c21.47,-76.37 85.9,-114.55 164.65,-114.55 83.52,0 143.18,38.18 152.72,114.55l-317.37 0zm1034.45 -164.66c-68.01,-59.65 -137.21,-77.55 -229.08,-77.55 -107.39,0 -248.18,47.72 -248.18,183.74 0,133.63 132.44,174.2 243.4,182.55 83.52,4.77 116.93,21.48 116.93,62.05 0,42.95 -51.3,71.58 -106.19,70.39 -65.62,-1.19 -161.07,-35.79 -202.83,-82.33l-71.59 103.81c85.91,89.48 178.97,104.99 272.04,104.99 168.23,0 252.94,-89.48 252.94,-193.29 0,-156.3 -140.79,-181.35 -251.75,-188.51 -75.17,-4.77 -109.77,-26.25 -109.77,-64.43 0,-36.99 38.18,-58.46 107.38,-58.46 56.08,0 103.81,13.12 145.57,52.49l81.13 -95.45z"/>
   <path class="fil0 str0" d="M2448.67 2031.5l15.27 0 0 -184.06 71.53 0 0 -13.57 -158.33 0 0 13.57 71.53 0 0 184.06zm275.92 -201.02c-66.73,0 -99.81,48.63 -99.81,101.78 0,52.31 33.36,102.63 99.81,102.63 66.44,0 99.52,-50.04 99.8,-102.06 0.28,-53.44 -33.08,-102.35 -99.8,-102.35zm0 14.14c56.83,0 85.1,42.12 85.1,87.92 0,44.68 -28.56,88.22 -85.1,88.22 -56.27,0 -84.54,-43.54 -84.82,-88.22 -0.29,-46.65 27.99,-87.92 84.82,-87.92zm293.16 111.11c43.25,0 64.46,-28.32 64.18,-60.65 -0.29,-30.91 -22.06,-61.77 -65.03,-61.77 -29.12,0 -57.96,0 -87.08,0l0 198.19 15.26 0 0 -74.92 54.01 0 68.42 74.92 20.07 0 -69.83 -75.77zm-72.67 -108.29l71.82 0c32.79,0 48.63,24.08 48.35,47.36 -0.29,27.8 -15.56,47.36 -50.05,47.36l-70.12 0 0 -94.72zm237.19 -14.13l0 198.19 15.26 0 0 -163.65 133.45 163.65 5.94 0 0 -198.19 -14.98 0 0 163.93 -133.17 -163.93 -6.5 0zm441.59 198.19l-88.77 -198.19 -16.68 0 -88.78 198.19 16.4 0 21.48 -48.63 118.19 0 21.77 48.63 16.39 0zm-150.41 -62.77l53.15 -120.67 53.16 120.67 -106.31 0zm245.1 -135.42l0 198.19 15.26 0 0 -163.65 133.45 163.65 5.94 0 0 -198.19 -14.98 0 0 163.93 -133.17 -163.93 -6.5 0zm333.31 0c-22.34,0 -44.67,0 -67.01,0l0 198.19c22.34,0 44.67,0 67.01,0 69.27,0 101.5,-50.94 100.37,-101.36 -1.13,-48.72 -33.36,-96.83 -100.37,-96.83zm0 14.42c57.11,0 84.25,41.04 85.1,82.41 0.85,42.51 -26.29,86.66 -85.1,86.66l-51.74 0 0 -169.07 51.74 0zm297.98 -17.25c-66.73,0 -99.81,48.63 -99.81,101.78 0,52.31 33.36,102.63 99.81,102.63 66.44,0 99.52,-50.04 99.8,-102.06 0.28,-53.44 -33.08,-102.35 -99.8,-102.35zm0 14.14c56.83,0 85.1,42.12 85.1,87.92 0,44.68 -28.56,88.22 -85.1,88.22 -56.27,0 -84.54,-43.54 -84.82,-88.22 -0.29,-46.65 27.99,-87.92 84.82,-87.92zm470.79 19.79c-19.5,-29.12 -44.1,-33.65 -72.37,-33.65 -32.52,0 -76.06,13.01 -75.21,54.85 0,36.47 37.04,43.82 73.23,50.89 32.51,6.22 65.31,12.73 65.02,42.41 0,35.06 -38.73,41.85 -63.04,41.85 -24.32,0 -55.42,-11.88 -67.58,-35.91l-13.57 6.79c15.27,30.25 50.33,42.97 81.15,42.97 33.07,0 78.03,-10.74 78.31,-55.42 0,-42.69 -39.58,-49.47 -77.75,-56.82 -33.36,-6.22 -60.5,-12.16 -60.5,-37.32 0,-31.67 36.75,-40.15 59.94,-40.15 22.33,0.28 45.51,3.67 59.93,26.86l12.44 -7.35zm122.12 -16.68l121.57 0 0 -14.42 -136.56 0 0 198.19 139.96 0 0 -14.7 -124.97 0 0 -78.04 115.92 0 0 -13.85 -115.92 0 0 -77.18zm364.13 -14.42l0 122.98c0,84.82 -121.57,85.11 -121.57,0l0 -122.98 -14.99 0 0 122.98c0,103.77 151.55,103.48 151.55,0l0 -122.98 -14.99 0zm391.35 31.1c-19.5,-29.12 -44.1,-33.65 -72.37,-33.65 -32.52,0 -76.06,13.01 -75.21,54.85 0,36.47 37.04,43.82 73.23,50.89 32.51,6.22 65.31,12.73 65.02,42.41 0,35.06 -38.73,41.85 -63.04,41.85 -24.32,0 -55.42,-11.88 -67.58,-35.91l-13.57 6.79c15.27,30.25 50.33,42.97 81.15,42.97 33.07,0 78.03,-10.74 78.31,-55.42 0,-42.69 -39.58,-49.47 -77.75,-56.82 -33.36,-6.22 -60.5,-12.16 -60.5,-37.32 0,-31.67 36.75,-40.15 59.94,-40.15 22.33,0.28 45.51,3.67 59.93,26.86l12.44 -7.35zm122.4 167.09l0 -198.19 -14.98 0 0 198.19 14.98 0zm177.82 0l15.27 0 0 -184.06 71.53 0 0 -13.57 -158.33 0 0 13.57 71.53 0 0 184.06zm199.58 -183.77l121.57 0 0 -14.42 -136.56 0 0 198.19 139.96 0 0 -14.7 -124.97 0 0 -78.04 115.92 0 0 -13.85 -115.92 0 0 -77.18zm440.84 108c43.25,0 64.46,-28.32 64.18,-60.65 -0.29,-30.91 -22.06,-61.77 -65.03,-61.77 -29.12,0 -57.96,0 -87.08,0l0 198.19 15.26 0 0 -74.92 54.01 0 68.42 74.92 20.07 0 -69.83 -75.77zm-72.67 -108.29l71.82 0c32.79,0 48.63,24.08 48.35,47.36 -0.29,27.8 -15.56,47.36 -50.05,47.36l-70.12 0 0 -94.72zm251.89 0.29l121.57 0 0 -14.42 -136.56 0 0 198.19 139.96 0 0 -14.7 -124.97 0 0 -78.04 115.92 0 0 -13.85 -115.92 0 0 -77.18zm401.45 183.77l-88.77 -198.19 -16.68 0 -88.78 198.19 16.4 0 21.48 -48.63 118.19 0 21.77 48.63 16.39 0zm-150.41 -62.77l53.15 -120.67 53.16 120.67 -106.31 0zm247.64 -135.42l0 198.19 126.67 0 0 -14.42 -111.4 0 0 -183.77 -15.27 0zm239.73 198.19l0 -198.19 -14.98 0 0 198.19 14.98 0zm178.1 -198.19c-22.34,0 -44.67,0 -67.01,0l0 198.19c22.34,0 44.67,0 67.01,0 69.27,0 101.5,-50.94 100.37,-101.36 -1.13,-48.72 -33.36,-96.83 -100.37,-96.83zm0 14.42c57.11,0 84.25,41.04 85.1,82.41 0.85,42.51 -26.29,86.66 -85.1,86.66l-51.74 0 0 -169.07 51.74 0zm377.7 183.77l-88.77 -198.19 -16.68 0 -88.78 198.19 16.4 0 21.48 -48.63 118.19 0 21.77 48.63 16.39 0zm-150.41 -62.77l53.15 -120.67 53.16 120.67 -106.31 0zm316.35 -135.42c-22.34,0 -44.67,0 -67.01,0l0 198.19c22.34,0 44.67,0 67.01,0 69.27,0 101.5,-50.94 100.37,-101.36 -1.13,-48.72 -33.36,-96.83 -100.37,-96.83zm0 14.42c57.11,0 84.25,41.04 85.1,82.41 0.85,42.51 -26.29,86.66 -85.1,86.66l-51.74 0 0 -169.07 51.74 0zm218.81 0l121.57 0 0 -14.42 -136.56 0 0 198.19 139.96 0 0 -14.7 -124.97 0 0 -78.04 115.92 0 0 -13.85 -115.92 0 0 -77.18z"/>
   <path class="fil1" d="M145.78 839.44c64.68,-474.09 471.15,-839.39 962.99,-839.39 232.19,0 445.33,81.43 612.49,217.26 29.7,24.12 57.94,49.97 84.58,77.38 141.69,-23.27 326.13,-47.89 428.04,38.31 209.06,176.89 -122.4,538.78 -262.93,640.06l111.61 -43.1c22.46,561.57 -520.17,967.54 -907.41,1361.99 -16.9,17.21 -40.4,27.86 -66.38,27.86 -25.96,0 -49.46,-10.65 -66.35,-27.86 -126.67,-129.03 -273.4,-260.68 -411.29,-401.38 343.46,-141.88 783.81,-375.43 983,-544.98l19.96 159.14 222.61 -435.12 -197.77 317.16 -21.3 -119.61c-347.09,277.29 -1642.29,980.52 -1642.29,425.74 0,-112.39 76.26,-257.2 206.23,-412.08 -50.94,-135.64 -74,-281.77 -55.79,-441.38zm1713.25 -485.21c63.28,77.12 115.98,165.61 152.49,256.84 31.95,79.83 52.44,156.66 63.02,230.8 114.33,-152.65 250.12,-374.22 123.73,-471.7 -80.9,-62.39 -226.75,-40 -339.24,-15.94zm-375.71 822.08l61.66 46.63c-23.83,13.83 -80.71,43.52 -158.26,80.96l24.42 -290.42 108.2 0 0 0c194.41,0 352.01,-157.6 352.01,-352.01 0,-192.84 -155.05,-349.42 -347.28,-351.95l0 -0.06 -4.73 0 -186.46 0 -191.18 0 -59.06 0c35.97,19.09 68.65,43.53 96.99,72.25 41.23,41.77 73.29,92.58 92.94,149.17 16.14,40.38 25.05,84.44 25.05,130.59 0,46.55 -9.04,90.98 -25.45,131.65 -2.54,7.22 -5.27,14.35 -8.19,21.37 -14.76,35.44 -34.51,68.31 -58.37,97.72 24,31.29 43.83,66.04 58.64,103.4l0.18 0c2.19,5.54 4.28,11.13 6.25,16.78 17.39,43.75 26.94,91.48 26.94,141.43 0,97.58 -29.38,175.66 -125.04,228.3 47.35,-63.78 75.38,-142.76 75.38,-228.3 0,-101.59 -39.53,-193.93 -104.02,-262.53 64.23,-63.78 104.02,-152.15 104.02,-249.82 0,-192.84 -155.07,-349.42 -347.3,-351.95l0.01 -0.06 -4.73 0 -377.64 0 -111.61 1327.02c-59.01,-76.67 -111.6,-156.55 -154.21,-240.44 -41.02,61.52 -67.78,117.65 -77.6,165.42 -87.36,425.19 831.95,36.43 1429.68,-339.99l-121.24 -45.16z"/>
  </g>
 </g>
</svg>
