<?xml version="1.0" encoding="UTF-8" standalone="no"?>
<svg
   xmlns:dc="http://purl.org/dc/elements/1.1/"
   xmlns:cc="http://creativecommons.org/ns#"
   xmlns:rdf="http://www.w3.org/1999/02/22-rdf-syntax-ns#"
   xmlns:svg="http://www.w3.org/2000/svg"
   xmlns="http://www.w3.org/2000/svg"
   xmlns:sodipodi="http://sodipodi.sourceforge.net/DTD/sodipodi-0.dtd"
   xmlns:inkscape="http://www.inkscape.org/namespaces/inkscape"
   inkscape:version="1.0 (4035a4fb49, 2020-05-01)"
   sodipodi:docname="logosvg.svg"
   viewBox="0 0 221.99826 223.87611"
   height="223.87611"
   width="221.99826"
   id="svg1006"
   version="1.1">
  <metadata
     id="metadata1012">
    <rdf:RDF>
      <cc:Work
         rdf:about="">
        <dc:format>image/svg+xml</dc:format>
        <dc:type
           rdf:resource="http://purl.org/dc/dcmitype/StillImage" />
        <dc:title></dc:title>
      </cc:Work>
    </rdf:RDF>
  </metadata>
  <defs
     id="defs1010" />
  <sodipodi:namedview
     fit-margin-bottom="0"
     fit-margin-right="0"
     fit-margin-left="0"
     fit-margin-top="0"
     inkscape:current-layer="g1014"
     inkscape:window-maximized="1"
     inkscape:window-y="-8"
     inkscape:window-x="-8"
     inkscape:cy="40.548092"
     inkscape:cx="417.11818"
     inkscape:zoom="0.70031861"
     showgrid="false"
     id="namedview1008"
     inkscape:window-height="705"
     inkscape:window-width="1366"
     inkscape:pageshadow="2"
     inkscape:pageopacity="0"
     guidetolerance="10"
     gridtolerance="10"
     objecttolerance="10"
     borderopacity="1"
     bordercolor="#666666"
     pagecolor="#ffffff" />
  <g
     transform="translate(-1.8905258,-2.1418818)"
     id="g1014"
     inkscape:label="Image"
     inkscape:groupmode="layer">
    <path
       sodipodi:nodetypes="cccccccccc"
       id="path1018"
       d="m 156.50241,119.64862 3.02908,4.41741 c -62.94504,40.14955 -74.991796,49.21312 -120.977609,59.77886 -11.000463,0.2876 -19.696546,4.0453 -33.1991753,-6.42564 -4.84334941,-5.03162 -5.12836734,-16.32748 2.4988626,-30.34333 3.6873307,-7.98005 12.8771597,-20.41749 14.6361957,-19.99091 l 4.997725,10.35244 c -5.15169,2.06227 -10.9587,15.23116 -7.853568,22.84674 6.011995,14.93167 23.02155,10.73873 36.768979,7.49659 33.946368,-13.91788 68.10166,-27.06971 100.09951,-48.13216 z"
       style="fill:#ffffff;stroke:#ffffff;stroke-width:0;stroke-linecap:butt;stroke-linejoin:miter;stroke-miterlimit:4;stroke-dasharray:none;stroke-opacity:1" />
    <path
       sodipodi:nodetypes="cccccccc"
       id="path1020"
       d="m 94.95678,32.485214 10.70941,-0.35698 c 13.8105,6.123169 19.09654,15.315145 21.06184,25.702587 1.30062,12.934909 1.28642,25.183826 -8.21054,32.485214 4.44813,7.773526 9.1132,15.073705 8.56752,23.917685 -0.43031,10.919 -1.72658,18.82008 -10.70941,23.20373 8.42556,-16.01656 9.14123,-31.6979 -4.28376,-46.764434 20.7264,-33.023814 8.08497,-48.847713 -17.13506,-58.187802 z"
       style="fill:#ffffff;stroke:#ffffff;stroke-width:0;stroke-linecap:butt;stroke-linejoin:miter;stroke-miterlimit:4;stroke-dasharray:none;stroke-opacity:1" />
    <path
       sodipodi:nodetypes="ccccccc"
       id="path1022"
       d="m 155.28646,32.128234 22.48977,-1.070941 C 162.69819,18.406536 153.86107,3.259412 109.94996,2.1418823 44.672594,3.9184025 2.0015755,61.95299 22.489764,127.08501 l 18.91996,31.41428 12.137333,-126.014076 z"
       style="fill:#ffffff;stroke:#ffffff;stroke-width:0;stroke-linecap:butt;stroke-linejoin:miter;stroke-miterlimit:4;stroke-dasharray:none;stroke-opacity:1" />
    <path
       sodipodi:nodetypes="cccccc"
       id="path1024"
       d="m 177.77623,31.057293 c 16.98821,-2.908376 17.37472,-1.666327 26.05957,-2.498863 9.28703,0.78487 12.66579,5.262404 16.77807,9.28149 13.19631,26.042938 -17.06288,46.42231 -27.48749,56.75988 22.7706,-31.752115 48.19497,-68.166393 -11.42337,-57.11686 z"
       style="fill:#ffffff;stroke:#ffffff;stroke-width:0;stroke-linecap:butt;stroke-linejoin:miter;stroke-miterlimit:4;stroke-dasharray:none;stroke-opacity:1" />
    <path
       sodipodi:nodetypes="ccsccccccc"
       id="path1026"
       d="m 193.12638,94.5998 9.99545,-2.855843 c -4.30874,60.344063 -56.54605,105.959353 -87.06343,131.533113 -2.19074,1.83585 -3.52911,2.80575 -6.46542,2.69151 -2.45878,-0.0517 -4.69792,0.75421 -7.11305,-2.60931 l -38.223462,-39.1574 92.814902,-52.47611 2.14188,14.99317 21.06184,-39.26784 z"
       style="fill:#ffffff;stroke:#ffffff;stroke-width:0;stroke-linecap:butt;stroke-linejoin:miter;stroke-miterlimit:4;stroke-dasharray:none;stroke-opacity:1" />
    <path
       sodipodi:nodetypes="ccccccccccc"
       id="path1028"
       d="m 162.42607,134.22462 -2.89458,-10.15859 -3.02908,-4.41741 -10.14046,-4.70094 4.99773,5.71169 -16.06412,7.13961 2.14189,-27.844471 18.20599,-0.713964 c 42.17585,-17.454654 30.92376,-56.559693 -0.35698,-67.112311 7.49659,-0.35698 14.99318,-0.713961 22.48977,-1.070941 38.5726,49.850238 12.63032,61.196611 -15.35016,103.167327 z"
       style="fill:#ffffff;stroke:#ffffff;stroke-width:0;stroke-linecap:butt;stroke-linejoin:miter;stroke-miterlimit:4;stroke-dasharray:none;stroke-opacity:1" />
  </g>
</svg>
