<?xml version="1.0" encoding="UTF-8" standalone="no"?>
<svg
   xmlns:dc="http://purl.org/dc/elements/1.1/"
   xmlns:cc="http://creativecommons.org/ns#"
   xmlns:rdf="http://www.w3.org/1999/02/22-rdf-syntax-ns#"
   xmlns:svg="http://www.w3.org/2000/svg"
   xmlns="http://www.w3.org/2000/svg"
   xmlns:sodipodi="http://sodipodi.sourceforge.net/DTD/sodipodi-0.dtd"
   xmlns:inkscape="http://www.inkscape.org/namespaces/inkscape"
   inkscape:version="1.0 (4035a4fb49, 2020-05-01)"
   sodipodi:docname="Logomarca - The Connection.svg"
   id="svg37"
   viewBox="0 0 12825.21 4573.6199"
   style="clip-rule:evenodd;fill-rule:evenodd;image-rendering:optimizeQuality;shape-rendering:geometricPrecision;text-rendering:geometricPrecision"
   version="1.1"
   height="45.736176mm"
   width="128.25223mm"
   xml:space="preserve"><metadata
   id="metadata41"><rdf:RDF><cc:Work
       rdf:about=""><dc:format>image/svg+xml</dc:format><dc:type
         rdf:resource="http://purl.org/dc/dcmitype/StillImage" /><dc:title></dc:title></cc:Work></rdf:RDF></metadata><sodipodi:namedview
   inkscape:current-layer="svg37"
   inkscape:window-maximized="1"
   inkscape:window-y="-8"
   inkscape:window-x="-8"
   inkscape:cy="980.6177"
   inkscape:cx="242.41913"
   inkscape:zoom="0.18508947"
   fit-margin-bottom="0"
   fit-margin-right="0"
   fit-margin-left="0"
   fit-margin-top="0"
   showgrid="false"
   id="namedview39"
   inkscape:window-height="705"
   inkscape:window-width="1366"
   inkscape:pageshadow="2"
   inkscape:pageopacity="0"
   guidetolerance="10"
   gridtolerance="10"
   objecttolerance="10"
   borderopacity="1"
   bordercolor="#666666"
   pagecolor="#ffffff" />
 <defs
   id="defs16">
  <style
   id="style2"
   type="text/css">
   <![CDATA[
    .str0 {stroke:#4FA872;stroke-width:33.87;stroke-miterlimit:22.9256}
    .fil2 {fill:#06302E}
    .fil1 {fill:#4FA872}
    .fil0 {fill:#06302E;fill-rule:nonzero}
   ]]>
  </style>
    <mask
   id="id0">
  <linearGradient
   y2="3290.27"
   x2="23280.369"
   y1="3426.99"
   x1="18346.699"
   gradientUnits="userSpaceOnUse"
   id="id1">
   <stop
   id="stop4"
   style="stop-opacity:0; stop-color:white"
   offset="0" />
   <stop
   id="stop6"
   style="stop-opacity:0; stop-color:white"
   offset="0.121569" />
   <stop
   id="stop8"
   style="stop-opacity:1; stop-color:white"
   offset="0.301961" />
   <stop
   id="stop10"
   style="stop-opacity:1; stop-color:white"
   offset="1" />
  </linearGradient>
     <rect
   id="rect13"
   height="4308.5898"
   width="4969.9102"
   y="1204.33"
   x="18328.58"
   style="fill:url(#id1)" />
    </mask>
 </defs>
 <g
   transform="translate(-13438.95,-1071.83)"
   id="Camada_x0020_1">
  <metadata
   id="CorelCorpID_0Corel-Layer" />
  <g
   id="_1334121158320">
   <path
   id="path19"
   d="m 17463.37,3532.46 c -142.03,0 -248.95,-37.07 -320.74,-111.21 -71.8,-74.13 -107.7,-183 -107.7,-326.59 v -529.11 h -184.95 c -15.61,0 -28.88,-5.46 -39.8,-16.39 -10.93,-10.93 -16.39,-24.19 -16.39,-39.8 v -138.13 c 0,-15.61 5.46,-28.87 16.39,-39.8 10.92,-10.93 24.19,-16.39 39.8,-16.39 h 184.95 V 1926.4 c 0,-17.17 5.46,-30.82 16.39,-40.97 10.93,-10.14 24.19,-15.21 39.8,-15.21 h 194.32 c 17.17,0 30.82,5.07 40.97,15.21 10.14,10.15 15.22,23.8 15.22,40.97 v 388.64 h 292.65 c 15.6,0 28.87,5.46 39.8,16.39 10.92,10.93 16.38,24.19 16.38,39.8 v 138.13 c 0,15.61 -5.46,28.87 -16.38,39.8 -10.93,10.93 -24.2,16.39 -39.8,16.39 h -292.65 v 503.35 c 0,67.12 11.7,117.84 35.12,152.18 23.41,34.34 61.65,51.51 114.71,51.51 h 163.89 c 17.17,0 30.82,5.07 40.97,15.22 10.14,10.14 15.22,23.8 15.22,40.97 v 147.49 c 0,15.61 -5.08,28.88 -15.22,39.8 -10.15,10.93 -23.8,16.39 -40.97,16.39 z m 515.06,0 c -15.61,0 -28.88,-5.46 -39.8,-16.39 -10.93,-10.92 -16.39,-24.19 -16.39,-39.8 V 1926.4 c 0,-17.17 5.46,-30.82 16.39,-40.97 10.92,-10.14 24.19,-15.21 39.8,-15.21 h 213.05 c 17.17,0 30.82,5.07 40.97,15.21 10.14,10.15 15.22,23.8 15.22,40.97 v 533.79 c 93.64,-112.37 219.29,-168.56 376.93,-168.56 143.59,0 258.31,47.21 344.15,141.64 85.85,94.43 128.77,222.8 128.77,385.13 v 657.87 c 0,15.61 -5.08,28.88 -15.22,39.8 -10.15,10.93 -23.8,16.39 -40.97,16.39 h -213.05 c -17.17,0 -31.22,-5.46 -42.14,-16.39 -10.93,-10.92 -16.39,-24.19 -16.39,-39.8 v -643.83 c 0,-90.52 -22.24,-161.15 -66.72,-211.87 -44.49,-50.73 -108.09,-76.09 -190.81,-76.09 -79.6,0 -143.59,25.75 -191.98,77.26 -48.38,51.5 -72.57,121.74 -72.57,210.7 v 643.83 c 0,15.61 -5.08,28.88 -15.22,39.8 -10.15,10.93 -23.8,16.39 -40.97,16.39 z m 1943.19,23.41 c -174.81,0 -313.33,-49.94 -415.56,-149.83 -102.24,-99.9 -156.47,-241.93 -162.72,-426.1 l -2.34,-58.53 c 0,-195.1 51.12,-348.84 153.35,-461.22 102.23,-112.37 243.87,-168.56 424.93,-168.56 185.73,0 328.93,56.19 429.6,168.56 100.67,112.38 151.01,262.22 151.01,449.51 v 49.17 c 0,15.61 -5.46,28.87 -16.39,39.8 -10.92,10.92 -24.97,16.39 -42.14,16.39 h -777.27 v 18.73 c 3.12,87.4 26.92,159.59 71.4,216.56 44.48,56.97 105.75,85.45 183.79,85.45 88.96,0 161.54,-35.9 217.73,-107.69 14.04,-17.17 24.97,-27.71 32.77,-31.61 7.81,-3.9 21.07,-5.85 39.8,-5.85 h 206.03 c 14.04,0 26.14,3.9 36.29,11.7 10.14,7.81 15.21,18.73 15.21,32.78 0,37.46 -22.24,81.55 -66.72,132.28 -44.48,50.72 -108.09,94.81 -190.81,132.27 -82.72,37.46 -178.71,56.19 -287.96,56.19 z m 255.19,-739.81 v -4.69 c 0,-92.08 -23.03,-165.83 -69.07,-221.24 -46.04,-55.41 -108.86,-83.11 -188.46,-83.11 -79.61,0 -142.04,27.7 -187.3,83.11 -45.26,55.41 -67.89,129.16 -67.89,221.24 v 4.69 z"
   class="fil0" />
   <path
   id="path21"
   d="m 14129.58,4941.28 c -215.39,0 -382,-55.02 -499.84,-165.05 -117.84,-110.04 -180.67,-266.51 -188.48,-469.42 -1.56,-42.14 -2.34,-110.82 -2.34,-206.02 0,-96.78 0.78,-167.01 2.34,-210.72 7.81,-199.77 71.02,-355.47 189.65,-467.07 118.62,-111.6 284.84,-167.4 498.67,-167.4 138.91,0 259.88,23.8 362.89,71.41 103.01,47.61 183.01,112.77 239.98,195.5 56.97,82.72 87.02,175.58 90.14,278.6 v 4.68 c 0,12.49 -5.07,23.03 -15.22,31.6 -10.15,8.6 -21.46,12.88 -33.95,12.88 h -227.09 c -18.74,0 -32.78,-4.28 -42.15,-12.88 -9.36,-8.57 -17.17,-23.79 -23.41,-45.64 -23.42,-96.77 -64,-165.06 -121.74,-204.86 -57.76,-39.81 -134.23,-59.7 -229.45,-59.7 -223.19,0 -339.47,124.86 -348.84,374.59 -1.56,42.15 -2.34,106.91 -2.34,194.33 0,87.4 0.78,153.74 2.34,198.99 9.37,249.74 125.65,374.6 348.84,374.6 93.66,0 169.74,-19.9 228.27,-59.7 58.53,-39.79 99.5,-108.09 122.92,-204.85 6.24,-21.86 14.05,-37.07 23.41,-45.66 9.37,-8.58 23.41,-12.88 42.15,-12.88 h 227.09 c 14.05,0 26.15,4.69 36.29,14.05 10.15,9.37 14.44,21.07 12.88,35.12 -3.12,103.01 -33.17,195.89 -90.14,278.61 -56.97,82.72 -136.97,147.88 -239.98,195.49 -103.01,47.6 -223.98,71.4 -362.89,71.4 z m 1484.34,0 c -184.17,0 -326.2,-46.81 -426.1,-140.47 -99.89,-93.64 -153.74,-223.19 -161.55,-388.64 l -2.34,-103.02 2.34,-103.01 c 7.81,-163.89 62.44,-293.04 163.89,-387.47 101.46,-94.43 242.71,-141.64 423.76,-141.64 179.5,0 319.97,47.21 421.43,141.64 101.45,94.43 156.08,223.58 163.87,387.47 1.58,18.73 2.36,53.07 2.36,103.01 0,49.95 -0.78,84.29 -2.36,103.02 -7.79,165.45 -61.64,295 -161.53,388.64 -99.9,93.66 -241.15,140.47 -423.77,140.47 z m 0,-236.46 c 82.73,0 146.33,-25.75 190.81,-77.26 44.49,-51.5 68.29,-127.21 71.41,-227.09 1.57,-15.61 2.35,-46.05 2.35,-91.32 0,-45.26 -0.78,-75.69 -2.35,-91.3 -3.12,-99.89 -27.31,-175.99 -72.58,-228.28 -45.27,-52.28 -108.47,-78.42 -189.64,-78.42 -82.72,0 -146.72,26.14 -191.97,78.42 -45.27,52.29 -69.46,128.39 -72.59,228.28 l -2.34,91.3 2.34,91.32 c 3.13,99.88 27.32,175.59 72.59,227.09 45.25,51.51 109.25,77.26 191.97,77.26 z m 903.71,213.05 c -15.59,0 -28.86,-5.46 -39.79,-16.39 -10.93,-10.93 -16.39,-24.18 -16.39,-39.79 V 3756.63 c 0,-17.17 5.46,-30.83 16.39,-40.98 10.93,-10.14 24.2,-15.22 39.79,-15.22 h 194.33 c 17.17,0 30.83,5.08 40.97,15.22 10.15,10.15 15.22,23.81 15.22,40.98 v 95.98 c 95.21,-117.06 225.53,-175.58 390.98,-175.58 143.6,0 257.53,46.82 341.82,140.47 84.28,93.65 126.43,222.41 126.43,386.3 v 657.89 c 0,15.61 -5.07,28.86 -15.22,39.79 -10.15,10.93 -23.8,16.39 -40.97,16.39 h -210.71 c -15.61,0 -28.88,-5.46 -39.8,-16.39 -10.93,-10.93 -16.39,-24.18 -16.39,-39.79 v -643.84 c 0,-90.53 -22.25,-161.16 -66.72,-211.89 -44.49,-50.72 -108.1,-76.08 -190.81,-76.08 -79.61,0 -143.6,25.75 -191.99,77.25 -48.39,51.51 -72.57,121.75 -72.57,210.72 v 643.84 c 0,15.61 -5.07,28.86 -15.22,39.79 -10.14,10.93 -23.8,16.39 -40.97,16.39 z m 1463.26,0 c -15.59,0 -28.86,-5.46 -39.79,-16.39 -10.93,-10.93 -16.39,-24.18 -16.39,-39.79 V 3756.63 c 0,-17.17 5.46,-30.83 16.39,-40.98 10.93,-10.14 24.2,-15.22 39.79,-15.22 h 194.33 c 17.17,0 30.83,5.08 40.97,15.22 10.15,10.15 15.22,23.81 15.22,40.98 v 95.98 c 95.21,-117.06 225.53,-175.58 390.98,-175.58 143.6,0 257.53,46.82 341.82,140.47 84.28,93.65 126.43,222.41 126.43,386.3 v 657.89 c 0,15.61 -5.07,28.86 -15.22,39.79 -10.15,10.93 -23.8,16.39 -40.96,16.39 h -210.72 c -15.61,0 -28.88,-5.46 -39.8,-16.39 -10.93,-10.93 -16.39,-24.18 -16.39,-39.79 v -643.84 c 0,-90.53 -22.25,-161.16 -66.72,-211.89 -44.49,-50.72 -108.1,-76.08 -190.81,-76.08 -79.6,0 -143.6,25.75 -191.99,77.25 -48.38,51.51 -72.57,121.75 -72.57,210.72 v 643.84 c 0,15.61 -5.07,28.86 -15.22,39.79 -10.14,10.93 -23.8,16.39 -40.97,16.39 z m 1933.85,23.41 c -174.8,0 -313.32,-49.95 -415.56,-149.83 -102.23,-99.89 -156.48,-241.93 -162.72,-426.11 l -2.34,-58.53 c 0,-195.1 51.12,-348.84 153.35,-461.21 102.24,-112.39 243.88,-168.57 424.94,-168.57 185.73,0 328.93,56.18 429.61,168.57 100.67,112.37 151.01,262.21 151.01,449.5 v 49.17 c 0,15.61 -5.46,28.88 -16.39,39.81 -10.92,10.92 -24.97,16.39 -42.14,16.39 h -777.29 v 18.73 c 3.12,87.4 26.93,159.59 71.41,216.55 44.48,56.98 105.74,85.46 183.79,85.46 88.96,0 161.54,-35.9 217.73,-107.7 14.05,-17.17 24.97,-27.71 32.78,-31.6 7.8,-3.9 21.07,-5.85 39.8,-5.85 h 206.02 c 14.05,0 26.15,3.9 36.29,11.71 10.15,7.79 15.22,18.72 15.22,32.76 0,37.47 -22.24,81.56 -66.73,132.28 -44.47,50.73 -108.08,94.83 -190.8,132.29 -82.73,37.45 -178.71,56.18 -287.98,56.18 z m 255.2,-739.82 v -4.69 c 0,-92.08 -23.02,-165.83 -69.07,-221.24 -46.05,-55.41 -108.86,-83.11 -188.46,-83.11 -79.61,0 -142.03,27.7 -187.3,83.11 -45.27,55.41 -67.9,129.16 -67.9,221.24 v 4.69 z m 1098.03,739.82 c -171.68,0 -308.64,-47.59 -410.88,-142.81 -102.23,-95.21 -156.47,-227.09 -162.72,-395.66 l -2.34,-93.66 2.34,-93.64 c 6.25,-168.57 60.49,-300.46 162.72,-395.67 102.24,-95.21 239.2,-142.81 410.88,-142.81 123.31,0 227.5,21.84 312.56,65.55 85.07,43.7 148.27,97.15 189.64,160.37 41.36,63.22 63.61,123.69 66.73,181.45 1.56,15.61 -3.52,28.88 -15.22,39.8 -11.71,10.93 -25.37,16.38 -40.98,16.38 h -208.37 c -17.16,0 -29.65,-3.5 -37.45,-10.52 -7.81,-7.03 -15.61,-19.91 -23.41,-38.64 -23.42,-59.31 -54.25,-102.24 -92.49,-128.76 -38.23,-26.54 -87.01,-39.81 -146.33,-39.81 -79.59,0 -141.64,24.98 -186.12,74.93 -44.48,49.94 -68.29,126.42 -71.41,229.43 l -2.34,86.62 2.34,77.27 c 9.37,202.9 95.22,304.36 257.53,304.36 60.88,0 110.05,-12.88 147.5,-38.63 37.46,-25.76 67.9,-69.06 91.32,-129.94 6.24,-17.17 13.65,-29.66 22.24,-37.46 8.58,-7.81 21.46,-11.71 38.62,-11.71 h 208.37 c 15.61,0 29.27,5.46 40.98,16.39 11.7,10.93 16.78,24.19 15.22,39.8 -3.12,54.64 -24.98,113.55 -65.56,176.77 -40.59,63.21 -103.01,117.45 -187.3,162.71 -84.28,45.26 -189.63,67.89 -316.07,67.89 z m 1364.94,-23.41 c -142.04,0 -248.95,-37.06 -320.75,-111.21 -71.79,-74.13 -107.7,-183 -107.7,-326.6 v -529.11 h -184.95 c -15.6,0 -28.87,-5.46 -39.8,-16.39 -10.92,-10.93 -16.39,-24.19 -16.39,-39.8 v -138.13 c 0,-15.61 5.47,-28.88 16.39,-39.81 10.93,-10.92 24.2,-16.39 39.8,-16.39 h 184.95 v -388.64 c 0,-17.17 5.47,-30.82 16.39,-40.97 10.93,-10.15 24.2,-15.22 39.81,-15.22 h 194.31 c 17.17,0 30.83,5.07 40.98,15.22 10.14,10.15 15.22,23.8 15.22,40.97 v 388.64 h 292.65 c 15.61,0 28.87,5.47 39.8,16.39 10.93,10.93 16.39,24.2 16.39,39.81 v 138.13 c 0,15.61 -5.46,28.87 -16.39,39.8 -10.93,10.93 -24.19,16.39 -39.8,16.39 h -292.65 v 503.36 c 0,67.12 11.7,117.85 35.12,152.18 23.41,34.34 61.64,51.51 114.71,51.51 h 163.89 c 17.17,0 30.83,5.07 40.97,15.22 10.15,10.14 15.22,23.8 15.22,40.97 v 147.5 c 0,15.61 -5.07,28.86 -15.22,39.79 -10.14,10.93 -23.8,16.39 -40.97,16.39 z m 512.72,0 c -15.6,0 -28.87,-5.46 -39.8,-16.39 -10.93,-10.93 -16.39,-24.18 -16.39,-39.79 V 3756.63 c 0,-17.17 5.46,-30.83 16.39,-40.98 10.93,-10.14 24.2,-15.22 39.8,-15.22 h 199 c 15.61,0 28.88,5.47 39.8,16.39 10.93,10.93 16.39,24.2 16.39,39.81 v 1105.06 c 0,15.61 -5.46,28.86 -16.39,39.79 -10.92,10.93 -24.19,16.39 -39.8,16.39 z m 1105.06,23.41 c -184.17,0 -326.2,-46.81 -426.1,-140.47 -99.89,-93.64 -153.74,-223.19 -161.55,-388.64 l -2.34,-103.02 2.34,-103.01 c 7.81,-163.89 62.44,-293.04 163.89,-387.47 101.46,-94.43 242.71,-141.64 423.76,-141.64 179.5,0 319.97,47.21 421.43,141.64 101.45,94.43 156.08,223.58 163.87,387.47 1.58,18.73 2.36,53.07 2.36,103.01 0,49.95 -0.78,84.29 -2.36,103.02 -7.79,165.45 -61.64,295 -161.53,388.64 -99.9,93.66 -241.15,140.47 -423.77,140.47 z m 0,-236.46 c 82.73,0 146.34,-25.75 190.81,-77.26 44.49,-51.5 68.29,-127.21 71.41,-227.09 1.57,-15.61 2.35,-46.05 2.35,-91.32 0,-45.26 -0.78,-75.69 -2.35,-91.3 -3.12,-99.89 -27.31,-175.99 -72.58,-228.28 -45.27,-52.28 -108.47,-78.42 -189.64,-78.42 -82.72,0 -146.72,26.14 -191.97,78.42 -45.27,52.29 -69.46,128.39 -72.59,228.28 l -2.34,91.3 2.34,91.32 c 3.13,99.88 27.32,175.59 72.59,227.09 45.25,51.51 109.25,77.26 191.97,77.26 z m 903.71,213.05 c -15.59,0 -28.86,-5.46 -39.79,-16.39 -10.93,-10.93 -16.39,-24.18 -16.39,-39.79 V 3756.63 c 0,-17.17 5.46,-30.83 16.39,-40.98 10.93,-10.14 24.2,-15.22 39.79,-15.22 h 194.33 c 17.17,0 30.83,5.08 40.97,15.22 10.15,10.15 15.22,23.81 15.22,40.98 v 95.98 c 95.21,-117.06 225.53,-175.58 390.98,-175.58 143.6,0 257.53,46.82 341.82,140.47 84.28,93.65 126.43,222.41 126.43,386.3 v 657.89 c 0,15.61 -5.07,28.86 -15.22,39.79 -10.15,10.93 -23.8,16.39 -40.97,16.39 h -210.71 c -15.61,0 -28.88,-5.46 -39.8,-16.39 -10.93,-10.93 -16.39,-24.18 -16.39,-39.79 v -643.84 c 0,-90.53 -22.25,-161.16 -66.72,-211.89 -44.49,-50.72 -108.1,-76.08 -190.81,-76.08 -79.61,0 -143.6,25.75 -191.99,77.25 -48.39,51.51 -72.57,121.75 -72.57,210.72 v 643.84 c 0,15.61 -5.07,28.86 -15.22,39.79 -10.14,10.93 -23.8,16.39 -40.97,16.39 z"
   class="fil0" />
   <path
   id="path23"
   mask="url(#id0)"
   d="m 23281.56,3358.63 -617,1068.69 -617.02,1068.67 h -1234.01 -1234.01 l -617.01,-1068.67 -617,-1068.69 617,-1068.69 617.01,-1068.68 h 1234.01 1234.01 l 617.02,1068.68 z m -72.84,0 -598.8,1032.28 -598.8,1032.27 h -1197.59 -1197.58 l -598.8,-1032.27 -598.8,-1032.28 598.8,-1032.29 598.8,-1032.26 h 1197.58 1197.59 l 598.8,1032.26 z"
   class="fil1 str0" />
   <path
   id="path25"
   d="m 23245.13,3544.49 c 102.64,0 185.86,-83.22 185.86,-185.86 0,-102.64 -83.22,-185.86 -185.86,-185.86 -102.64,0 -185.85,83.22 -185.85,185.86 0,102.64 83.21,185.86 185.85,185.86 z"
   class="fil2" />
   <path
   id="path27"
   d="m 22029.33,5645.45 c 102.64,0 185.86,-83.22 185.86,-185.86 0,-102.64 -83.22,-185.85 -185.86,-185.85 -102.64,0 -185.85,83.21 -185.85,185.85 0,102.64 83.21,185.86 185.85,185.86 z"
   class="fil2" />
   <path
   id="path29"
   d="m 19597.73,5645.45 c 102.64,0 185.86,-83.22 185.86,-185.86 0,-102.64 -83.22,-185.85 -185.86,-185.85 -102.63,0 -185.85,83.21 -185.85,185.85 0,102.64 83.22,185.86 185.85,185.86 z"
   class="fil2" />
   <path
   id="path31"
   d="m 19597.73,1443.53 c 102.64,0 185.86,-83.22 185.86,-185.85 0,-102.64 -83.22,-185.85 -185.86,-185.85 -102.63,0 -185.85,83.21 -185.85,185.85 0,102.63 83.22,185.85 185.85,185.85 z"
   class="fil2" />
   <path
   id="path33"
   d="m 22029.33,1443.53 c 102.64,0 185.85,-83.22 185.85,-185.85 0,-102.64 -83.21,-185.85 -185.85,-185.85 -102.63,0 -185.85,83.21 -185.85,185.85 0,102.63 83.22,185.85 185.85,185.85 z"
   class="fil2" />
  </g>
 </g>
</svg>
