<?xml version="1.0" encoding="UTF-8" standalone="no"?>
<svg
   xmlns:dc="http://purl.org/dc/elements/1.1/"
   xmlns:cc="http://creativecommons.org/ns#"
   xmlns:rdf="http://www.w3.org/1999/02/22-rdf-syntax-ns#"
   xmlns:svg="http://www.w3.org/2000/svg"
   xmlns="http://www.w3.org/2000/svg"
   xmlns:sodipodi="http://sodipodi.sourceforge.net/DTD/sodipodi-0.dtd"
   xmlns:inkscape="http://www.inkscape.org/namespaces/inkscape"
   inkscape:version="1.0 (4035a4fb49, 2020-05-01)"
   sodipodi:docname="Ãcone 2.svg"
   id="svg42"
   viewBox="0 0 1058.3201 1058.32"
   style="clip-rule:evenodd;fill-rule:evenodd;image-rendering:optimizeQuality;shape-rendering:geometricPrecision;text-rendering:geometricPrecision"
   version="1.1"
   height="10.583211mm"
   width="10.583211mm"
   xml:space="preserve"><metadata
   id="metadata46"><rdf:RDF><cc:Work
       rdf:about=""><dc:format>image/svg+xml</dc:format><dc:type
         rdf:resource="http://purl.org/dc/dcmitype/StillImage" /><dc:title></dc:title></cc:Work></rdf:RDF></metadata><sodipodi:namedview
   inkscape:current-layer="svg42"
   inkscape:window-maximized="1"
   inkscape:window-y="-8"
   inkscape:window-x="-8"
   inkscape:cy="-95.487215"
   inkscape:cx="10.595144"
   inkscape:zoom="0.34337059"
   fit-margin-bottom="0"
   fit-margin-right="0"
   fit-margin-left="0"
   fit-margin-top="0"
   showgrid="false"
   id="namedview44"
   inkscape:window-height="705"
   inkscape:window-width="1366"
   inkscape:pageshadow="2"
   inkscape:pageopacity="0"
   guidetolerance="10"
   gridtolerance="10"
   objecttolerance="10"
   borderopacity="1"
   bordercolor="#666666"
   pagecolor="#ffffff" />
 <defs
   id="defs31">
  <style
   id="style29"
   type="text/css">
   <![CDATA[
    .fil0 {fill:white}
   ]]>
  </style>
 </defs>
 <g
   transform="translate(-19572.6,-12651.12)"
   id="Camada_x0020_1">
  <metadata
   id="CorelCorpID_0Corel-Layer" />
  <g
   id="_2224548084208">
   <path
   id="path34"
   d="m 19807.77,12651.12 h 587.98 c 129.35,0 235.17,105.82 235.17,235.17 v 587.98 c 0,129.35 -105.82,235.17 -235.17,235.17 h -587.98 c -129.35,0 -235.17,-105.82 -235.17,-235.17 v -587.98 c 0,-129.35 105.82,-235.17 235.17,-235.17 z m 48.11,86.61 h 491.76 c 108.17,0 196.67,88.5 196.67,196.67 v 491.76 c 0,108.17 -88.5,196.67 -196.67,196.67 h -491.76 c -108.17,0 -196.67,-88.5 -196.67,-196.67 v -491.76 c 0,-108.17 88.5,-196.67 196.67,-196.67 z"
   class="fil0" />
   <path
   id="path36"
   d="m 20101.76,12891.66 c 159.4,0 288.62,129.22 288.62,288.62 0,159.4 -129.22,288.62 -288.62,288.62 -159.4,0 -288.62,-129.22 -288.62,-288.62 0,-159.4 129.22,-288.62 288.62,-288.62 z m 0,115.47 c 95.63,0 173.15,77.52 173.15,173.15 0,95.63 -77.52,173.15 -173.15,173.15 -95.63,0 -173.15,-77.52 -173.15,-173.15 0,-95.63 77.52,-173.15 173.15,-173.15 z"
   class="fil0" />
   <circle
   id="circle38"
   r="57.720001"
   cy="12901.27"
   cx="20409.609"
   class="fil0" />
  </g>
 </g>
</svg>
