<?xml version="1.0" encoding="UTF-8" standalone="no"?>
<svg
   xmlns:dc="http://purl.org/dc/elements/1.1/"
   xmlns:cc="http://creativecommons.org/ns#"
   xmlns:rdf="http://www.w3.org/1999/02/22-rdf-syntax-ns#"
   xmlns:svg="http://www.w3.org/2000/svg"
   xmlns="http://www.w3.org/2000/svg"
   xmlns:sodipodi="http://sodipodi.sourceforge.net/DTD/sodipodi-0.dtd"
   xmlns:inkscape="http://www.inkscape.org/namespaces/inkscape"
   inkscape:version="1.0 (4035a4fb49, 2020-05-01)"
   sodipodi:docname="Ãcone Play Store.svg"
   id="svg23"
   viewBox="0 0 2402.2718 2571.9637"
   style="clip-rule:evenodd;fill-rule:evenodd;image-rendering:optimizeQuality;shape-rendering:geometricPrecision;text-rendering:geometricPrecision"
   version="1.1"
   height="25.719624mm"
   width="24.022741mm"
   xml:space="preserve"><metadata
   id="metadata27"><rdf:RDF><cc:Work
       rdf:about=""><dc:format>image/svg+xml</dc:format><dc:type
         rdf:resource="http://purl.org/dc/dcmitype/StillImage" /><dc:title></dc:title></cc:Work></rdf:RDF></metadata><sodipodi:namedview
   inkscape:current-layer="svg23"
   inkscape:window-maximized="1"
   inkscape:window-y="-8"
   inkscape:window-x="-8"
   inkscape:cy="-42.055803"
   inkscape:cx="-1348.5297"
   inkscape:zoom="0.18508947"
   fit-margin-bottom="0"
   fit-margin-right="0"
   fit-margin-left="0"
   fit-margin-top="0"
   showgrid="false"
   id="namedview25"
   inkscape:window-height="705"
   inkscape:window-width="1366"
   inkscape:pageshadow="2"
   inkscape:pageopacity="0"
   guidetolerance="10"
   gridtolerance="10"
   objecttolerance="10"
   borderopacity="1"
   bordercolor="#666666"
   pagecolor="#ffffff" />
 <defs
   id="defs7">
  <style
   id="style2"
   type="text/css">
   <![CDATA[
    .str0 {stroke:#BAE4B4;stroke-width:42.33;stroke-miterlimit:22.9256}
    .fil1 {fill:none}
    .fil0 {fill:black}
   ]]>
  </style>
   <clipPath
   id="id0">
    <path
   id="path4"
   d="m 16684.09,28141.1 c 721.81,392.89 1424.71,775.49 2146.53,1168.39 35.5,20.5 78.82,55.44 79.38,97.27 0.56,41.5 -42.57,79.85 -75.99,99.14 -739.2,398.27 -1430.41,798.5 -2174.4,1187.71 -60.9,31.85 -151.88,-29.97 -151.88,-127.26 0,-768.26 0,-1523.82 0,-2292.09 0,-97.54 80.62,-173.42 176.36,-133.16 z" />
   </clipPath>
 </defs>
 <g
   transform="translate(-16507.76,-28130.08)"
   id="Camada_x0020_1">
  <metadata
   id="CorelCorpID_0Corel-Layer" />
  <path
   id="path10"
   d="m 16684.09,28141.1 c 721.81,392.89 1424.71,775.49 2146.53,1168.39 35.5,20.5 78.82,55.44 79.38,97.27 0.56,41.5 -42.57,79.85 -75.99,99.14 -739.2,398.27 -1430.41,798.5 -2174.4,1187.71 -60.9,31.85 -151.88,-29.97 -151.88,-127.26 0,-768.26 0,-1523.82 0,-2292.09 0,-97.54 80.62,-173.42 176.36,-133.16 z"
   class="fil0" />
  <g
   id="g18"
   clip-path="url(#id0)">
   <g
   id="_1334165844128">
    <polygon
   points="19347.56,29268.36 16835.81,30923.84 16488.17,30815.59 18307.76,28984.05 "
   class="fil1 str0"
   id="1" />
    <polygon
   id="polygon13"
   points="19041.65,29394.13 18529.66,29106.92 18281.31,29010.49 17881.95,29412.7 18310.24,29843.68 "
   class="fil1 str0" />
    <polygon
   id="polygon15"
   points="16578.05,28039.68 17319.29,28152.95 18418.18,28895.06 18281.31,29010.49 17881.95,29412.7 16592.51,28119.65 "
   class="fil1 str0" />
   </g>
  </g>
  <path
   id="path20"
   d="m 16684.09,28141.1 c 721.81,392.89 1424.71,775.49 2146.53,1168.39 35.5,20.5 78.82,55.44 79.38,97.27 0.56,41.5 -42.57,79.85 -75.99,99.14 -739.2,398.27 -1430.41,798.5 -2174.4,1187.71 -60.9,31.85 -151.88,-29.97 -151.88,-127.26 0,-768.26 0,-1523.82 0,-2292.09 0,-97.54 80.62,-173.42 176.36,-133.16 z"
   class="fil1" />
 </g>
</svg>
