<?xml version="1.0" encoding="UTF-8" standalone="no"?>
<svg
   xmlns:dc="http://purl.org/dc/elements/1.1/"
   xmlns:cc="http://creativecommons.org/ns#"
   xmlns:rdf="http://www.w3.org/1999/02/22-rdf-syntax-ns#"
   xmlns:svg="http://www.w3.org/2000/svg"
   xmlns="http://www.w3.org/2000/svg"
   xmlns:sodipodi="http://sodipodi.sourceforge.net/DTD/sodipodi-0.dtd"
   xmlns:inkscape="http://www.inkscape.org/namespaces/inkscape"
   inkscape:version="1.0 (4035a4fb49, 2020-05-01)"
   sodipodi:docname="Ãcone 1.svg"
   id="svg32"
   viewBox="0 0 1058.34 866.28188"
   style="clip-rule:evenodd;fill-rule:evenodd;image-rendering:optimizeQuality;shape-rendering:geometricPrecision;text-rendering:geometricPrecision"
   version="1.1"
   height="8.6628275mm"
   width="10.58341mm"
   xml:space="preserve"><metadata
   id="metadata36"><rdf:RDF><cc:Work
       rdf:about=""><dc:format>image/svg+xml</dc:format><dc:type
         rdf:resource="http://purl.org/dc/dcmitype/StillImage" /><dc:title></dc:title></cc:Work></rdf:RDF></metadata><sodipodi:namedview
   inkscape:current-layer="svg32"
   inkscape:window-maximized="1"
   inkscape:window-y="-8"
   inkscape:window-x="-8"
   inkscape:cy="-99.116312"
   inkscape:cx="-88.265743"
   inkscape:zoom="0.46383515"
   fit-margin-bottom="0"
   fit-margin-right="0"
   fit-margin-left="0"
   fit-margin-top="0"
   showgrid="false"
   id="namedview34"
   inkscape:window-height="705"
   inkscape:window-width="1366"
   inkscape:pageshadow="2"
   inkscape:pageopacity="0"
   guidetolerance="10"
   gridtolerance="10"
   objecttolerance="10"
   borderopacity="1"
   bordercolor="#666666"
   pagecolor="#ffffff" />
 <defs
   id="defs26">
  <style
   id="style24"
   type="text/css">
   <![CDATA[
    .fil0 {fill:white}
   ]]>
  </style>
 </defs>
 <g
   transform="translate(-16398.48,-12747.14)"
   id="Camada_x0020_1">
  <metadata
   id="CorelCorpID_0Corel-Layer" />
  <path
   id="path29"
   d="m 17417.63,12762.37 c -34.31,24.51 -73.5,63.71 -137.2,49.01 -181.29,-151.9 -387.07,-14.7 -362.57,205.79 -132.29,-4.91 -347.88,-63.71 -450.78,-225.4 -44.09,112.7 -34.29,200.89 49,284.19 -34.3,4.9 -53.89,4.9 -88.2,-19.6 14.7,112.69 73.5,171.49 166.6,225.39 -14.7,14.7 -54.72,32.15 -89.02,7.66 -4.89,93.09 133.12,124.63 201.7,144.23 -73.49,102.89 -195.98,88.19 -308.68,93.09 602.67,279.28 955.44,-171.48 960.35,-568.36 34.29,-24.5 73.49,-63.7 97.99,-107.8 -44.1,14.7 -73.5,24.5 -117.6,29.4 34.31,-24.49 73.5,-63.7 78.41,-117.6 z"
   class="fil0" />
 </g>
</svg>
